<?xml version="1.0" encoding="utf-8"?>
<!-- Generator: Adobe Illustrator 18.0.0, SVG Export Plug-In . SVG Version: 6.00 Build 0)  -->
<!DOCTYPE svg PUBLIC "-//W3C//DTD SVG 1.1//EN" "http://www.w3.org/Graphics/SVG/1.1/DTD/svg11.dtd">
<svg version="1.1" id="Layer_1" xmlns="http://www.w3.org/2000/svg" xmlns:xlink="http://www.w3.org/1999/xlink" x="0px" y="0px"
	 viewBox="0 0 120 112" enable-background="new 0 0 120 112" xml:space="preserve">
<path fill="#f05424" d="M88.1,11.3L83,16.4c5.8,2.4,11.3,5,15.3,7c-1,12.4-5.5,38.8-10.2,52.8c-3,8.9-17.9,20.2-28.4,26.5
	c-4.3-2.6-9.3-6-14-9.7l36.6-36.6c2.3-2.3,3.6-5.3,3.6-8.6c0-3.2-1.3-6.3-3.6-8.6s-5.3-3.6-8.6-3.6c-3.2,0-6.3,1.3-8.6,3.6l-7.9,7.9
	l4.9,4.9l7.9-7.9c2-2,5.4-2,7.4,0c1,1,1.5,2.3,1.5,3.7c0,1.4-0.5,2.7-1.5,3.7L35.6,93.2c1.7,1.6,3.5,3.1,5.3,4.6
	c9.2,7.5,18.8,12.7,18.8,12.7s29.4-16,34.8-32.1c5.3-16,10.7-48.1,10.7-58.8C105.1,19.5,97.6,15.4,88.1,11.3z"/>
<path fill="#f05424" d="M49.3,55c-2,2-5.4,2-7.4,0c-1-1-1.5-2.3-1.5-3.7c0-1.4,0.5-2.7,1.5-3.7L81.1,8.5c-2.4-0.9-4.9-1.8-7.3-2.5
	l0,0c-5.1-1.5-10-2.6-14.1-2.6c-16,0-45.5,16-45.5,16c0,10.7,5.3,42.8,10.7,58.8c1.1,3.3,3.3,6.6,6,9.8l4.8-4.8
	c-2.1-2.5-3.6-4.9-4.4-7.2c-4.7-14-9.2-40.4-10.2-52.8c9.7-4.9,28.3-13.3,38.6-13.3c2.5,0,5.4,0.5,8.6,1.3L37,42.7l0,0
	c-2.3,2.3-3.6,5.3-3.6,8.6c0,3.2,1.3,6.3,3.6,8.6c4.7,4.7,12.5,4.7,17.2,0l7.9-7.9l-4.9-4.9L49.3,55z"/>
</svg>
